{
    "asset" : {
        "generator" : "Khronos glTF Blender I/O v3.2.40",
        "version" : "2.0"
    },
    "scene" : 0,
    "scenes" : [
        {
            "name" : "Scene",
            "nodes" : [
                0,
                1
            ]
        }
    ],
    "nodes" : [
        {
            "mesh" : 0,
            "name" : "glasses frame",
            "rotation" : [
                -0.7223615050315857,
                -0.0005635041161440313,
                0.0001626406447030604,
                0.6915153861045837
            ],
            "scale" : [
                0.22948241233825684,
                0.22948245704174042,
                0.22948242723941803
            ],
            "translation" : [
                0.0027304247487336397,
                0.26002606749534607,
                1.0504167079925537
            ]
        },
        {
            "mesh" : 1,
            "name" : "FBHead"
        }
    ],
    "materials" : [
        {
            "doubleSided" : true,
            "name" : "gold",
            "pbrMetallicRoughness" : {
                "baseColorFactor" : [
                    0,
                    0,
                    0,
                    1
                ],
                "metallicFactor" : 0,
                "roughnessFactor" : 0.08251749724149704
            }
        },
        {
            "doubleSided" : true,
            "name" : "FBHead_preview_mat",
            "pbrMetallicRoughness" : {
                "baseColorTexture" : {
                    "index" : 0
                },
                "metallicFactor" : 0,
                "roughnessFactor" : 0.5
            }
        }
    ],
    "meshes" : [
        {
            "name" : "Circle.001",
            "primitives" : [
                {
                    "attributes" : {
                        "POSITION" : 0,
                        "NORMAL" : 1,
                        "TEXCOORD_0" : 2
                    },
                    "indices" : 3,
                    "material" : 0
                }
            ]
        },
        {
            "name" : "FBHead_mesh",
            "primitives" : [
                {
                    "attributes" : {
                        "POSITION" : 4,
                        "NORMAL" : 5,
                        "TEXCOORD_0" : 6
                    },
                    "indices" : 7,
                    "material" : 1
                }
            ]
        }
    ],
    "textures" : [
        {
            "sampler" : 0,
            "source" : 0
        }
    ],
    "images" : [
        {
            "bufferView" : 8,
            "mimeType" : "image/png",
            "name" : "FBHead_baked_tex"
        }
    ],
    "accessors" : [
        {
            "bufferView" : 0,
            "componentType" : 5126,
            "count" : 196,
            "max" : [
                0,
                4.426608562469482,
                0.9997045993804932
            ],
            "min" : [
                -2.5313971042633057,
                -0.1862782984972,
                -1.0002954006195068
            ],
            "type" : "VEC3"
        },
        {
            "bufferView" : 1,
            "componentType" : 5126,
            "count" : 196,
            "type" : "VEC3"
        },
        {
            "bufferView" : 2,
            "componentType" : 5126,
            "count" : 196,
            "type" : "VEC2"
        },
        {
            "bufferView" : 3,
            "componentType" : 5123,
            "count" : 1158,
            "type" : "SCALAR"
        },
        {
            "bufferView" : 4,
            "componentType" : 5126,
            "count" : 18097,
            "max" : [
                0.8300302624702454,
                1.3014919757843018,
                1.1858457326889038
            ],
            "min" : [
                -0.898330569267273,
                -1.5980494022369385,
                -0.7494499683380127
            ],
            "type" : "VEC3"
        },
        {
            "bufferView" : 5,
            "componentType" : 5126,
            "count" : 18097,
            "type" : "VEC3"
        },
        {
            "bufferView" : 6,
            "componentType" : 5126,
            "count" : 18097,
            "type" : "VEC2"
        },
        {
            "bufferView" : 7,
            "componentType" : 5123,
            "count" : 107862,
            "type" : "SCALAR"
        }
    ],
    "bufferViews" : [
        {
            "buffer" : 0,
            "byteLength" : 2352,
            "byteOffset" : 0
        },
        {
            "buffer" : 0,
            "byteLength" : 2352,
            "byteOffset" : 2352
        },
        {
            "buffer" : 0,
            "byteLength" : 1568,
            "byteOffset" : 4704
        },
        {
            "buffer" : 0,
            "byteLength" : 2316,
            "byteOffset" : 6272
        },
        {
            "buffer" : 0,
            "byteLength" : 217164,
            "byteOffset" : 8588
        },
        {
            "buffer" : 0,
            "byteLength" : 217164,
            "byteOffset" : 225752
        },
        {
            "buffer" : 0,
            "byteLength" : 144776,
            "byteOffset" : 442916
        },
        {
            "buffer" : 0,
            "byteLength" : 215724,
            "byteOffset" : 587692
        },
        {
            "buffer" : 0,
            "byteLength" : 610027,
            "byteOffset" : 803416
        }
    ],
    "samplers" : [
        {
            "magFilter" : 9729,
            "minFilter" : 9987
        }
    ],
    "buffers" : [
        {
            "byteLength" : 1413444,
            "uri" : "data:application/octet-stream;base64,"
        }
    ]
}
