{
    "asset" : {
        "generator" : "Khronos glTF Blender I/O v3.2.40",
        "version" : "2.0"
    },
    "scene" : 0,
    "scenes" : [
        {
            "name" : "Scene",
            "nodes" : [
                0,
                1
            ]
        }
    ],
    "nodes" : [
        {
            "mesh" : 0,
            "name" : "FBHead"
        },
        {
            "mesh" : 1,
            "name" : "glasses frame",
            "rotation" : [
                -0.7223615050315857,
                -0.0005635041161440313,
                0.0001626406447030604,
                0.6915155053138733
            ],
            "scale" : [
                0.2275114357471466,
                0.2275114506483078,
                0.2275114506483078
            ],
            "translation" : [
                -0.005501437932252884,
                0.22787761688232422,
                0.9324991703033447
            ]
        }
    ],
    "materials" : [
        {
            "doubleSided" : true,
            "name" : "FBHead_preview_mat",
            "pbrMetallicRoughness" : {
                "baseColorTexture" : {
                    "index" : 0
                },
                "metallicFactor" : 0,
                "roughnessFactor" : 0.5
            }
        },
        {
            "doubleSided" : true,
            "name" : "Black",
            "pbrMetallicRoughness" : {
                "baseColorFactor" : [
                    0,
                    0,
                    0,
                    1
                ],
                "roughnessFactor" : 0.08251749724149704
            }
        }
    ],
    "meshes" : [
        {
            "name" : "FBHead_mesh",
            "primitives" : [
                {
                    "attributes" : {
                        "POSITION" : 0,
                        "NORMAL" : 1,
                        "TEXCOORD_0" : 2
                    },
                    "indices" : 3,
                    "material" : 0
                }
            ]
        },
        {
            "name" : "Circle.001",
            "primitives" : [
                {
                    "attributes" : {
                        "POSITION" : 4,
                        "NORMAL" : 5,
                        "TEXCOORD_0" : 6
                    },
                    "indices" : 7,
                    "material" : 1
                }
            ]
        }
    ],
    "textures" : [
        {
            "sampler" : 0,
            "source" : 0
        }
    ],
    "images" : [
        {
            "bufferView" : 4,
            "mimeType" : "image/png",
            "name" : "FBHead_baked_tex"
        }
    ],
    "accessors" : [
        {
            "bufferView" : 0,
            "componentType" : 5126,
            "count" : 18097,
            "max" : [
                0.7787874341011047,
                1.0922576189041138,
                1.1150202751159668
            ],
            "min" : [
                -0.7791858911514282,
                -1.132345199584961,
                -0.6244676113128662
            ],
            "type" : "VEC3"
        },
        {
            "bufferView" : 1,
            "componentType" : 5126,
            "count" : 18097,
            "type" : "VEC3"
        },
        {
            "bufferView" : 2,
            "componentType" : 5126,
            "count" : 18097,
            "type" : "VEC2"
        },
        {
            "bufferView" : 3,
            "componentType" : 5123,
            "count" : 107862,
            "type" : "SCALAR"
        },
        {
            "bufferView" : 5,
            "componentType" : 5126,
            "count" : 388,
            "max" : [
                2.5313971042633057,
                4.426608562469482,
                0.9997045993804932
            ],
            "min" : [
                -2.5313971042633057,
                -0.18607984483242035,
                -1.0002954006195068
            ],
            "type" : "VEC3"
        },
        {
            "bufferView" : 6,
            "componentType" : 5126,
            "count" : 388,
            "type" : "VEC3"
        },
        {
            "bufferView" : 7,
            "componentType" : 5126,
            "count" : 388,
            "type" : "VEC2"
        },
        {
            "bufferView" : 8,
            "componentType" : 5123,
            "count" : 2316,
            "type" : "SCALAR"
        }
    ],
    "bufferViews" : [
        {
            "buffer" : 0,
            "byteLength" : 217164,
            "byteOffset" : 0
        },
        {
            "buffer" : 0,
            "byteLength" : 217164,
            "byteOffset" : 217164
        },
        {
            "buffer" : 0,
            "byteLength" : 144776,
            "byteOffset" : 434328
        },
        {
            "buffer" : 0,
            "byteLength" : 215724,
            "byteOffset" : 579104
        },
        {
            "buffer" : 0,
            "byteLength" : 640954,
            "byteOffset" : 794828
        },
        {
            "buffer" : 0,
            "byteLength" : 4656,
            "byteOffset" : 1435784
        },
        {
            "buffer" : 0,
            "byteLength" : 4656,
            "byteOffset" : 1440440
        },
        {
            "buffer" : 0,
            "byteLength" : 3104,
            "byteOffset" : 1445096
        },
        {
            "buffer" : 0,
            "byteLength" : 4632,
            "byteOffset" : 1448200
        }
    ],
    "samplers" : [
        {
            "magFilter" : 9729,
            "minFilter" : 9987
        }
    ],
    "buffers" : [
        {
            "byteLength" : 1452832,
            "uri" : "data:application/octet-stream;base64,"
        }
    ]
}
