{
    "asset" : {
        "generator" : "Khronos glTF Blender I/O v3.2.40",
        "version" : "2.0"
    },
    "scene" : 0,
    "scenes" : [
        {
            "name" : "Horse_Rider",
            "nodes" : [
                4,
                5,
                6
            ]
        }
    ],
    "nodes" : [
        {
            "mesh" : 0,
            "name" : "Makehuman2_Body",
            "rotation" : [
                -0.7071068286895752,
                0,
                0,
                0.7071067094802856
            ],
            "scale" : [
                0.30206501483917236,
                0.30206501483917236,
                0.30206501483917236
            ],
            "translation" : [
                -0.00717626977711916,
                0.3391520082950592,
                -0.08995430171489716
            ]
        },
        {
            "mesh" : 1,
            "name" : "Makehuman2_Male_elegantsuit01_001",
            "rotation" : [
                -0.7071068286895752,
                0,
                0,
                0.7071067094802856
            ],
            "scale" : [
                0.30206501483917236,
                0.30206501483917236,
                0.30206501483917236
            ],
            "translation" : [
                -0.007176289800554514,
                0.3391520082950592,
                -0.08995430171489716
            ]
        },
        {
            "mesh" : 2,
            "name" : "Makehuman2_Shoes03",
            "rotation" : [
                -0.7071068286895752,
                0,
                0,
                0.7071067094802856
            ],
            "scale" : [
                0.30206501483917236,
                0.30206501483917236,
                0.30206501483917236
            ],
            "translation" : [
                -0.00717626977711916,
                0.3391520082950592,
                -0.08995430171489716
            ]
        },
        {
            "mesh" : 3,
            "name" : "Mesh16_Model",
            "rotation" : [
                0,
                -0.1268438994884491,
                0,
                0.9919227361679077
            ],
            "scale" : [
                0.20616836845874786,
                0.25011345744132996,
                0.2451288253068924
            ],
            "translation" : [
                -0.06112249940633774,
                -1.4318983554840088,
                0.1280670017004013
            ]
        },
        {
            "children" : [
                0,
                1,
                2,
                3
            ],
            "name" : "Monument",
            "translation" : [
                0,
                -0.12484221160411835,
                0
            ]
        },
        {
            "mesh" : 4,
            "name" : "glasses frame",
            "rotation" : [
                -0.7223615050315857,
                -0.0005635042325593531,
                0.00016264068835880607,
                0.6915155053138733
            ],
            "scale" : [
                0.009939076378941536,
                0.00993907731026411,
                0.009939076378941536
            ],
            "translation" : [
                -0.006458336487412453,
                0.8012831211090088,
                -0.03712867945432663
            ]
        },
        {
            "mesh" : 5,
            "name" : "FBHead",
            "scale" : [
                0.04368603602051735,
                0.04368603602051735,
                0.04368603602051735
            ],
            "translation" : [
                -0.006218000315129757,
                0.7913281917572021,
                -0.07786589860916138
            ]
        }
    ],
    "materials" : [
        {
            "doubleSided" : true,
            "name" : "Makehuman2_Body_Defaultskin_001",
            "pbrMetallicRoughness" : {
                "baseColorFactor" : [
                    0.13286834955215454,
                    0.07421357929706573,
                    0.0368894599378109,
                    1
                ],
                "metallicFactor" : 0,
                "roughnessFactor" : 0.5
            }
        },
        {
            "doubleSided" : true,
            "name" : "Makehuman2_Male_elegantsuit01_Male_elegantsuit01_001",
            "pbrMetallicRoughness" : {
                "baseColorFactor" : [
                    0,
                    0,
                    0,
                    1
                ],
                "metallicFactor" : 0,
                "roughnessFactor" : 0.5
            }
        },
        {
            "doubleSided" : true,
            "name" : "Makehuman2_Shoes03_Shoes03_001",
            "pbrMetallicRoughness" : {
                "baseColorFactor" : [
                    0,
                    0,
                    0,
                    1
                ],
                "metallicFactor" : 1,
                "roughnessFactor" : 0.5
            }
        },
        {
            "doubleSided" : true,
            "name" : "LeftSide_001",
            "pbrMetallicRoughness" : {
                "baseColorFactor" : [
                    0.6444799304008484,
                    0.011612089350819588,
                    0,
                    1
                ],
                "metallicFactor" : 0,
                "roughnessFactor" : 0.5
            }
        },
        {
            "doubleSided" : true,
            "name" : "Back2_001",
            "pbrMetallicRoughness" : {
                "baseColorFactor" : [
                    0.6444799304008484,
                    0.011612089350819588,
                    0,
                    1
                ],
                "metallicFactor" : 0,
                "roughnessFactor" : 0.5
            }
        },
        {
            "doubleSided" : true,
            "name" : "EastSide_001",
            "pbrMetallicRoughness" : {
                "baseColorFactor" : [
                    0.6444799304008484,
                    0.011612089350819588,
                    0,
                    1
                ],
                "metallicFactor" : 0,
                "roughnessFactor" : 0.5
            }
        },
        {
            "doubleSided" : true,
            "name" : "RightSide_001",
            "pbrMetallicRoughness" : {
                "baseColorFactor" : [
                    0.6444799304008484,
                    0.011612089350819588,
                    0,
                    1
                ],
                "metallicFactor" : 0,
                "roughnessFactor" : 0.5
            }
        },
        {
            "doubleSided" : true,
            "name" : "Black",
            "pbrMetallicRoughness" : {
                "baseColorFactor" : [
                    0,
                    0,
                    0,
                    1
                ],
                "roughnessFactor" : 0.08251749724149704
            }
        },
        {
            "doubleSided" : true,
            "name" : "FBHead_preview_mat",
            "pbrMetallicRoughness" : {
                "baseColorTexture" : {
                    "index" : 0
                },
                "metallicFactor" : 0,
                "roughnessFactor" : 0.5
            }
        }
    ],
    "meshes" : [
        {
            "name" : "Makehuman2_Body",
            "primitives" : [
                {
                    "attributes" : {
                        "POSITION" : 0,
                        "NORMAL" : 1,
                        "TEXCOORD_0" : 2
                    },
                    "indices" : 3,
                    "material" : 0
                }
            ]
        },
        {
            "name" : "Makehuman2_Male_elegantsuit01_001",
            "primitives" : [
                {
                    "attributes" : {
                        "POSITION" : 4,
                        "NORMAL" : 5,
                        "TEXCOORD_0" : 6
                    },
                    "indices" : 7,
                    "material" : 1
                }
            ]
        },
        {
            "name" : "Makehuman2_Shoes03",
            "primitives" : [
                {
                    "attributes" : {
                        "POSITION" : 8,
                        "NORMAL" : 9,
                        "TEXCOORD_0" : 10
                    },
                    "indices" : 11,
                    "material" : 2
                }
            ]
        },
        {
            "name" : "Mesh16_Model",
            "primitives" : [
                {
                    "attributes" : {
                        "POSITION" : 12,
                        "NORMAL" : 13,
                        "TEXCOORD_0" : 14
                    },
                    "indices" : 15,
                    "material" : 3
                },
                {
                    "attributes" : {
                        "POSITION" : 16,
                        "NORMAL" : 17,
                        "TEXCOORD_0" : 18
                    },
                    "indices" : 19,
                    "material" : 4
                },
                {
                    "attributes" : {
                        "POSITION" : 20,
                        "NORMAL" : 21,
                        "TEXCOORD_0" : 22
                    },
                    "indices" : 23,
                    "material" : 5
                },
                {
                    "attributes" : {
                        "POSITION" : 24,
                        "NORMAL" : 25,
                        "TEXCOORD_0" : 26
                    },
                    "indices" : 27,
                    "material" : 6
                }
            ]
        },
        {
            "name" : "Circle.001",
            "primitives" : [
                {
                    "attributes" : {
                        "POSITION" : 28,
                        "NORMAL" : 29,
                        "TEXCOORD_0" : 30
                    },
                    "indices" : 31,
                    "material" : 7
                }
            ]
        },
        {
            "name" : "FBHead_mesh",
            "primitives" : [
                {
                    "attributes" : {
                        "POSITION" : 32,
                        "NORMAL" : 33,
                        "TEXCOORD_0" : 34
                    },
                    "indices" : 35,
                    "material" : 8
                }
            ]
        }
    ],
    "textures" : [
        {
            "sampler" : 0,
            "source" : 0
        }
    ],
    "images" : [
        {
            "bufferView" : 36,
            "mimeType" : "image/png",
            "name" : "FBHead_baked_tex"
        }
    ],
    "accessors" : [
        {
            "bufferView" : 0,
            "componentType" : 5126,
            "count" : 3886,
            "max" : [
                0.2988535165786743,
                0.06544172763824463,
                1.2645461559295654
            ],
            "min" : [
                -0.3803858458995819,
                -0.414014995098114,
                0.8519060015678406
            ],
            "type" : "VEC3"
        },
        {
            "bufferView" : 1,
            "componentType" : 5126,
            "count" : 3886,
            "type" : "VEC3"
        },
        {
            "bufferView" : 2,
            "componentType" : 5126,
            "count" : 3886,
            "type" : "VEC2"
        },
        {
            "bufferView" : 3,
            "componentType" : 5123,
            "count" : 20376,
            "type" : "SCALAR"
        },
        {
            "bufferView" : 4,
            "componentType" : 5126,
            "count" : 8250,
            "max" : [
                0.5371079444885254,
                0.13711996376514435,
                1.854509949684143
            ],
            "min" : [
                -0.5126099586486816,
                -0.5124008059501648,
                0.4306411147117615
            ],
            "type" : "VEC3"
        },
        {
            "bufferView" : 5,
            "componentType" : 5126,
            "count" : 8250,
            "type" : "VEC3"
        },
        {
            "bufferView" : 6,
            "componentType" : 5126,
            "count" : 8250,
            "type" : "VEC2"
        },
        {
            "bufferView" : 7,
            "componentType" : 5123,
            "count" : 44868,
            "type" : "SCALAR"
        },
        {
            "bufferView" : 8,
            "componentType" : 5126,
            "count" : 2404,
            "max" : [
                0.5634576082229614,
                -0.30617696046829224,
                0.5248777866363525
            ],
            "min" : [
                -0.5354296565055847,
                -0.6336871385574341,
                0.3333685100078583
            ],
            "type" : "VEC3"
        },
        {
            "bufferView" : 9,
            "componentType" : 5126,
            "count" : 2404,
            "type" : "VEC3"
        },
        {
            "bufferView" : 10,
            "componentType" : 5126,
            "count" : 2404,
            "type" : "VEC2"
        },
        {
            "bufferView" : 11,
            "componentType" : 5123,
            "count" : 11748,
            "type" : "SCALAR"
        },
        {
            "bufferView" : 12,
            "componentType" : 5126,
            "count" : 7003,
            "max" : [
                0.830601155757904,
                9.247098922729492,
                1.315955400466919
            ],
            "min" : [
                -0.5298560857772827,
                6.223050117492676,
                -2.0978193283081055
            ],
            "type" : "VEC3"
        },
        {
            "bufferView" : 13,
            "componentType" : 5126,
            "count" : 7003,
            "type" : "VEC3"
        },
        {
            "bufferView" : 14,
            "componentType" : 5126,
            "count" : 7003,
            "type" : "VEC2"
        },
        {
            "bufferView" : 15,
            "componentType" : 5123,
            "count" : 35088,
            "type" : "SCALAR"
        },
        {
            "bufferView" : 16,
            "componentType" : 5126,
            "count" : 899,
            "max" : [
                0.32850611209869385,
                8.361424446105957,
                0.7850301861763
            ],
            "min" : [
                -0.541279673576355,
                6.538547039031982,
                -2.099879741668701
            ],
            "type" : "VEC3"
        },
        {
            "bufferView" : 17,
            "componentType" : 5126,
            "count" : 899,
            "type" : "VEC3"
        },
        {
            "bufferView" : 18,
            "componentType" : 5126,
            "count" : 899,
            "type" : "VEC2"
        },
        {
            "bufferView" : 19,
            "componentType" : 5123,
            "count" : 4440,
            "type" : "SCALAR"
        },
        {
            "bufferView" : 20,
            "componentType" : 5126,
            "count" : 37,
            "max" : [
                -0.39210623502731323,
                6.2462358474731445,
                -1.412455677986145
            ],
            "min" : [
                -0.5831108093261719,
                6.225480556488037,
                -1.5579253435134888
            ],
            "type" : "VEC3"
        },
        {
            "bufferView" : 21,
            "componentType" : 5126,
            "count" : 37,
            "type" : "VEC3"
        },
        {
            "bufferView" : 22,
            "componentType" : 5126,
            "count" : 37,
            "type" : "VEC2"
        },
        {
            "bufferView" : 23,
            "componentType" : 5123,
            "count" : 144,
            "type" : "SCALAR"
        },
        {
            "bufferView" : 24,
            "componentType" : 5126,
            "count" : 6809,
            "max" : [
                0.46198952198028564,
                9.252403259277344,
                1.3153711557388306
            ],
            "min" : [
                -0.744677722454071,
                6.232385635375977,
                -1.8385140895843506
            ],
            "type" : "VEC3"
        },
        {
            "bufferView" : 25,
            "componentType" : 5126,
            "count" : 6809,
            "type" : "VEC3"
        },
        {
            "bufferView" : 26,
            "componentType" : 5126,
            "count" : 6809,
            "type" : "VEC2"
        },
        {
            "bufferView" : 27,
            "componentType" : 5123,
            "count" : 34320,
            "type" : "SCALAR"
        },
        {
            "bufferView" : 28,
            "componentType" : 5126,
            "count" : 388,
            "max" : [
                2.5313971042633057,
                4.426608562469482,
                0.9997045993804932
            ],
            "min" : [
                -2.5313971042633057,
                -0.18607984483242035,
                -1.0002954006195068
            ],
            "type" : "VEC3"
        },
        {
            "bufferView" : 29,
            "componentType" : 5126,
            "count" : 388,
            "type" : "VEC3"
        },
        {
            "bufferView" : 30,
            "componentType" : 5126,
            "count" : 388,
            "type" : "VEC2"
        },
        {
            "bufferView" : 31,
            "componentType" : 5123,
            "count" : 2316,
            "type" : "SCALAR"
        },
        {
            "bufferView" : 32,
            "componentType" : 5126,
            "count" : 18097,
            "max" : [
                0.7787874341011047,
                1.0922576189041138,
                1.1150202751159668
            ],
            "min" : [
                -0.7791858911514282,
                -1.132345199584961,
                -0.6244676113128662
            ],
            "type" : "VEC3"
        },
        {
            "bufferView" : 33,
            "componentType" : 5126,
            "count" : 18097,
            "type" : "VEC3"
        },
        {
            "bufferView" : 34,
            "componentType" : 5126,
            "count" : 18097,
            "type" : "VEC2"
        },
        {
            "bufferView" : 35,
            "componentType" : 5123,
            "count" : 107862,
            "type" : "SCALAR"
        }
    ],
    "bufferViews" : [
        {
            "buffer" : 0,
            "byteLength" : 46632,
            "byteOffset" : 0
        },
        {
            "buffer" : 0,
            "byteLength" : 46632,
            "byteOffset" : 46632
        },
        {
            "buffer" : 0,
            "byteLength" : 31088,
            "byteOffset" : 93264
        },
        {
            "buffer" : 0,
            "byteLength" : 40752,
            "byteOffset" : 124352
        },
        {
            "buffer" : 0,
            "byteLength" : 99000,
            "byteOffset" : 165104
        },
        {
            "buffer" : 0,
            "byteLength" : 99000,
            "byteOffset" : 264104
        },
        {
            "buffer" : 0,
            "byteLength" : 66000,
            "byteOffset" : 363104
        },
        {
            "buffer" : 0,
            "byteLength" : 89736,
            "byteOffset" : 429104
        },
        {
            "buffer" : 0,
            "byteLength" : 28848,
            "byteOffset" : 518840
        },
        {
            "buffer" : 0,
            "byteLength" : 28848,
            "byteOffset" : 547688
        },
        {
            "buffer" : 0,
            "byteLength" : 19232,
            "byteOffset" : 576536
        },
        {
            "buffer" : 0,
            "byteLength" : 23496,
            "byteOffset" : 595768
        },
        {
            "buffer" : 0,
            "byteLength" : 84036,
            "byteOffset" : 619264
        },
        {
            "buffer" : 0,
            "byteLength" : 84036,
            "byteOffset" : 703300
        },
        {
            "buffer" : 0,
            "byteLength" : 56024,
            "byteOffset" : 787336
        },
        {
            "buffer" : 0,
            "byteLength" : 70176,
            "byteOffset" : 843360
        },
        {
            "buffer" : 0,
            "byteLength" : 10788,
            "byteOffset" : 913536
        },
        {
            "buffer" : 0,
            "byteLength" : 10788,
            "byteOffset" : 924324
        },
        {
            "buffer" : 0,
            "byteLength" : 7192,
            "byteOffset" : 935112
        },
        {
            "buffer" : 0,
            "byteLength" : 8880,
            "byteOffset" : 942304
        },
        {
            "buffer" : 0,
            "byteLength" : 444,
            "byteOffset" : 951184
        },
        {
            "buffer" : 0,
            "byteLength" : 444,
            "byteOffset" : 951628
        },
        {
            "buffer" : 0,
            "byteLength" : 296,
            "byteOffset" : 952072
        },
        {
            "buffer" : 0,
            "byteLength" : 288,
            "byteOffset" : 952368
        },
        {
            "buffer" : 0,
            "byteLength" : 81708,
            "byteOffset" : 952656
        },
        {
            "buffer" : 0,
            "byteLength" : 81708,
            "byteOffset" : 1034364
        },
        {
            "buffer" : 0,
            "byteLength" : 54472,
            "byteOffset" : 1116072
        },
        {
            "buffer" : 0,
            "byteLength" : 68640,
            "byteOffset" : 1170544
        },
        {
            "buffer" : 0,
            "byteLength" : 4656,
            "byteOffset" : 1239184
        },
        {
            "buffer" : 0,
            "byteLength" : 4656,
            "byteOffset" : 1243840
        },
        {
            "buffer" : 0,
            "byteLength" : 3104,
            "byteOffset" : 1248496
        },
        {
            "buffer" : 0,
            "byteLength" : 4632,
            "byteOffset" : 1251600
        },
        {
            "buffer" : 0,
            "byteLength" : 217164,
            "byteOffset" : 1256232
        },
        {
            "buffer" : 0,
            "byteLength" : 217164,
            "byteOffset" : 1473396
        },
        {
            "buffer" : 0,
            "byteLength" : 144776,
            "byteOffset" : 1690560
        },
        {
            "buffer" : 0,
            "byteLength" : 215724,
            "byteOffset" : 1835336
        },
        {
            "buffer" : 0,
            "byteLength" : 640954,
            "byteOffset" : 2051060
        }
    ],
    "samplers" : [
        {
            "magFilter" : 9729,
            "minFilter" : 9987
        }
    ],
    "buffers" : [
        {
            "byteLength" : 2692016,
            "uri" : "data:application/octet-stream;base64,"
        }
    ]
}
